<?xml version="1.0" encoding="UTF-8" standalone="no"?>
<svg
   width="32"
   height="32"
   viewBox="0 0 32 32"
   version="1.1"
   id="svg8"
   inkscape:version="1.3.2 (1:1.3.2+202311252150+091e20ef0f)"
   sodipodi:docname="Damped+Driven_Oscillator.svg"
   inkscape:export-filename="Damped+Driven_Oscillator.png"
   inkscape:export-xdpi="200"
   inkscape:export-ydpi="200"
   xmlns:inkscape="http://www.inkscape.org/namespaces/inkscape"
   xmlns:sodipodi="http://sodipodi.sourceforge.net/DTD/sodipodi-0.dtd"
   xmlns="http://www.w3.org/2000/svg"
   xmlns:svg="http://www.w3.org/2000/svg"
   xmlns:rdf="http://www.w3.org/1999/02/22-rdf-syntax-ns#"
   xmlns:cc="http://creativecommons.org/ns#"
   xmlns:dc="http://purl.org/dc/elements/1.1/">
  <sodipodi:namedview
     gridtolerance="10"
     id="base"
     pagecolor="#ffffff"
     bordercolor="#666666"
     borderopacity="1.0"
     inkscape:pageopacity="0.0"
     inkscape:pageshadow="2"
     inkscape:zoom="12.020815"
     inkscape:cx="2.6620491"
     inkscape:cy="34.689827"
     inkscape:document-units="px"
     inkscape:current-layer="layer1"
     inkscape:document-rotation="0"
     showgrid="true"
     units="in"
     inkscape:window-width="1920"
     inkscape:window-height="1171"
     inkscape:window-x="0"
     inkscape:window-y="0"
     inkscape:window-maximized="1"
     inkscape:showpageshadow="2"
     inkscape:pagecheckerboard="true"
     inkscape:deskcolor="#d1d1d1"
     showguides="false">
    <inkscape:grid
       type="xygrid"
       id="grid833"
       originx="0"
       originy="0"
       spacingy="1"
       spacingx="1"
       units="in"
       visible="true" />
  </sodipodi:namedview>
  <defs
     id="defs2" />
  <metadata
     id="metadata5">
    <rdf:RDF>
      <cc:Work
         rdf:about="">
        <dc:format>image/svg+xml</dc:format>
        <dc:type
           rdf:resource="http://purl.org/dc/dcmitype/StillImage" />
      </cc:Work>
    </rdf:RDF>
  </metadata>
  <g
     inkscape:label="Layer 1"
     inkscape:groupmode="layer"
     id="layer1">
    <rect
       style="fill:#6a0032;fill-opacity:1;stroke:#ffc82e;stroke-width:2;stroke-linecap:square;stroke-dasharray:none;stroke-dashoffset:0;stroke-opacity:1;paint-order:markers stroke fill"
       id="rect1"
       width="30"
       height="30"
       x="0.9999997"
       y="1"
       ry="3.2084849" />
    <text
       xml:space="preserve"
       style="font-size:6.66667px;font-family:Arial;-inkscape-font-specification:Arial;fill:none;stroke:#000000;stroke-width:0.756;stroke-linecap:square;stroke-dasharray:none;stroke-dashoffset:0;stroke-opacity:1;paint-order:markers stroke fill"
       x="1.9016857"
       y="28.313026"
       id="text2"><tspan
         sodipodi:role="line"
         id="tspan2"
         x="1.9016857"
         y="28.313026"
         style="font-size:6.66667px;fill:#ffffff;fill-opacity:1;stroke:none">Oscillator</tspan></text>
    <rect
       style="fill:none;fill-opacity:1;stroke:#ffc82e;stroke-width:0.593701;stroke-linecap:square;stroke-dasharray:none;stroke-dashoffset:0;stroke-opacity:1;paint-order:markers stroke fill"
       id="rect2"
       width="27.4063"
       height="19.385311"
       x="2.2968502"
       y="2.6178381"
       ry="4.9384041" />
    <path
       style="fill:none;fill-opacity:1;stroke:#ffc82e;stroke-width:1.2;stroke-linecap:round;stroke-linejoin:round;stroke-dasharray:none;stroke-dashoffset:0;stroke-opacity:1;paint-order:markers stroke fill"
       d="m 2.96552,17.133 c 0.32184,-0.0148 0.64368,-0.0373 0.96551,-0.0678 0.32184,-0.0306 0.64368,-0.0693 0.96552,-0.1172 0.32184,-0.0479 0.64368,-0.1051 0.96552,-0.1732 0.32184,-0.0681 0.64368,-0.1473 0.96552,-0.24 0.32184,-0.0927 0.64367,-0.1991 0.96551,-0.323 0.32184,-0.124 0.64368,-0.2656 0.96552,-0.431 0.32184,-0.1653 0.64368,-0.3544 0.96552,-0.5767 0.32186,-0.2224 0.64366,-0.478 0.96556,-0.7821 0.3218,-0.304 0.6436,-0.6565 0.9655,-1.0814 0.3218,-0.4248 0.6437,-0.9226 0.9655,-1.5263 0.3218,-0.6037 0.6437,-1.3183 0.9655,-2.15664 0.3218,-0.83837 0.6437,-1.82177 0.9655,-2.76826 0.3219,-0.94649 0.6437,-1.8388 0.9655,-2.10758 0.3219,-0.26877 0.6437,0.1853 0.9656,1.1167 0.3218,0.93141 0.6436,2.21815 0.9655,3.36785 0.3218,1.14973 0.6437,2.18413 0.9655,3.04903 0.3218,0.865 0.6437,1.5741 0.9655,2.173 0.3218,0.5989 0.6437,1.0889 0.9655,1.5091 0.3219,0.4203 0.6437,0.7703 0.9655,1.075 0.3219,0.3047 0.6437,0.5635 0.9656,0.7918 0.3218,0.2283 0.6436,0.4257 0.9655,0.6018 0.3218,0.176 0.6437,0.3305 0.9655,0.4696 0.3218,0.1392 0.6437,0.2628 0.9655,0.375 0.3219,0.1122 0.6437,0.213 0.9655,0.3051 0.3219,0.0921 0.6437,0.1756 0.9655,0.2523 0.3219,0.0768 0.6437,0.1468 0.9656,0.2116"
       title="0.2/sqrt((x**2-1)**2+0.04*2*x**2)"
       id="path17"
       sodipodi:nodetypes="ccssscccccsccccccsccccccccc" />
  </g>
</svg>
